HIERARCHY
ROOT Hips
{
  OFFSET 0 0 0
  CHANNELS 6 Xposition Yposition Zposition Zrotation Yrotation Xrotation
  JOINT LeftThigh
  {
    OFFSET 8.409438 0 -5.917753
    CHANNELS 3 Zrotation Yrotation Xrotation
    JOINT LeftLeg
    {
      OFFSET 0 0 -42.358652
      CHANNELS 3 Zrotation Yrotation Xrotation
      JOINT LeftFoot
      {
        OFFSET 0 0 -39.357303
        CHANNELS 3 Zrotation Yrotation Xrotation
      }
    }
  }
  JOINT RightThigh
  {
    OFFSET -8.409438 0 -5.917753
    CHANNELS 3 Zrotation Yrotation Xrotation
    JOINT RightLeg
    {
      OFFSET 0 0 -42.358652
      CHANNELS 3 Zrotation Yrotation Xrotation
      JOINT RightFoot
      {
        OFFSET 0 0 -39.357303
        CHANNELS 3 Zrotation Yrotation Xrotation
      }
    }
  }
  JOINT SpineLow
  {
    OFFSET 0 0 4.719101
    CHANNELS 3 Zrotation Yrotation Xrotation
    JOINT SpineMid
    {
      OFFSET 0 0 12.899191
      CHANNELS 3 Zrotation Yrotation Xrotation
      JOINT Chest
      {
        OFFSET 0 0 12.899191
        CHANNELS 3 Zrotation Yrotation Xrotation
        JOINT LeftShoulder
        {
          OFFSET 7.550562 1.41573 9.438202
          CHANNELS 3 Zrotation Yrotation Xrotation
          JOINT LeftArm
          {
            OFFSET 9.155056 0 4.247191
            CHANNELS 3 Zrotation Yrotation Xrotation
            JOINT LeftForearm
            {
              OFFSET 0 0 25.771955
              CHANNELS 3 Zrotation Yrotation Xrotation
              JOINT LeftHand
              {
                OFFSET 0 0 25.197169
                CHANNELS 3 Zrotation Yrotation Xrotation
              }
            }
          }
        }
        JOINT RightShoulder
        {
          OFFSET -7.550562 1.41573 9.438202
          CHANNELS 3 Zrotation Yrotation Xrotation
          JOINT RightArm
          {
            OFFSET -9.155056 0 4.247191
            CHANNELS 3 Zrotation Yrotation Xrotation
            JOINT RightForearm
            {
              OFFSET 0 0 -25.771955
              CHANNELS 3 Zrotation Yrotation Xrotation
              JOINT RightHand
              {
                OFFSET 0 0 -25.197169
                CHANNELS 3 Zrotation Yrotation Xrotation
              }
            }
          }
        }
        JOINT Neck
        {
          OFFSET 0 0 15.101124
          CHANNELS 3 Zrotation Yrotation Xrotation
          JOINT Head
          {
            OFFSET 0 0 11.325843
            CHANNELS 3 Zrotation Yrotation Xrotation
            End Site
            {
              OFFSET 0 0 14.157303
            }
          }
        }
      }
    }
  }
}
MOTION
Frames: 16
Frame Time: 0.0
0.0  93.25843  0.0  -1.732823  -47.8134  -85.654532  17.488486  -13.679133  -4.692524  18.979494  -3.912313  17.610973  13.64463  1.475803  6.740549  3.441704  -4.103761  -16.588255  -1.226585  8.389247  6.474637  5.202798  0.599742  1.317777  2.715979  1.485323  -1.666205  7.326603  4.23906  -4.386464  7.326603  4.23906  -4.386464  -34.192627  12.839685  6.096502  -170.701735  41.282326  -145.344297  9.536294  -12.14063  37.632811  86.338869  13.264758  -16.18356  0.161887  -13.62247  33.571968  57.698125  37.946657  32.121685  26.899274  -15.176409  -123.696116  51.662091  -37.193061  -30.548658  8.725631  3.887527  22.072248  6.411008  3.236638  16.496398  
0.0  93.25843  0.0  -1.655154  -46.166355  -85.803853  18.868448  -14.072855  -5.08717  17.741832  -3.714043  17.711979  12.968255  1.43793  6.64139  3.466739  -3.714046  -16.576463  -1.542814  8.406325  7.105704  5.171533  0.523243  1.410141  1.952712  1.225366  -2.040532  5.234263  3.508937  -5.479156  5.234263  3.508937  -5.479156  -32.685932  16.68131  6.638112  -173.267829  46.169038  -145.935405  8.095125  -3.246885  26.421569  83.328104  8.985079  -13.661608  1.673908  -11.884483  36.277822  54.224359  34.933924  32.000461  24.888246  -16.184877  -122.364457  57.897554  -35.77787  -34.414869  10.250394  4.537651  23.757661  7.520513  3.80986  17.738849  
0.0  93.25843  0.0  -1.860539  -44.298984  -85.861797  20.615959  -14.237415  -5.081517  15.64808  -3.652993  17.114853  12.785654  1.32258  6.845998  3.071248  -3.558009  -16.595956  -1.396155  8.293761  8.028152  4.940628  0.523617  1.45197  1.097153  1.021547  -2.194308  2.905137  2.888539  -5.953622  2.905137  2.888539  -5.953622  -30.870525  20.466993  6.271928  -176.144284  50.731297  -145.573478  3.47055  1.317888  15.065229  81.987789  7.095018  -7.734302  2.497872  -10.774331  37.083807  53.451589  31.703568  33.924529  23.038655  -17.154918  -121.681307  61.239976  -35.324158  -35.012683  11.839583  5.170234  24.662544  8.681295  4.365808  18.392485  
0.0  93.25843  0.0  -2.421934  -41.891399  -86.064583  20.766314  -15.135278  -5.095545  14.092542  -3.456891  16.910499  12.567388  1.261861  6.81876  1.900338  -3.97566  -15.995995  -1.126077  8.402496  8.71651  4.643082  0.58775  1.472717  0.286929  0.95543  -1.974036  0.706052  2.632951  -5.387026  0.706052  2.632951  -5.387026  -32.224829  22.291383  3.245404  -173.682264  51.544574  -142.15038  1.879148  3.75051  5.145161  82.593618  7.985979  -5.897342  3.317571  -10.077769  35.682553  51.9977  28.589231  35.114687  22.196811  -18.00328  -121.266459  63.275524  -34.699804  -33.835283  12.702858  5.511691  24.383599  9.316918  4.651647  18.168407  
0.0  93.25843  0.0  -2.94123  -39.393109  -86.482261  20.256246  -16.060162  -4.78364  12.799639  -3.290154  16.552546  12.472327  1.210355  6.807771  0.474258  -4.533974  -15.226142  -0.952975  8.701126  9.36761  4.325716  0.626249  1.500461  -0.364465  0.969061  -1.614641  -1.060936  2.623064  -4.430101  -1.060936  2.623064  -4.430101  -34.648594  21.100317  0.208289  -178.536374  51.077338  -152.049252  -2.487399  -1.701939  4.840524  79.578041  9.418306  -4.654679  2.531687  -9.356301  33.422464  51.049347  25.257401  36.211135  20.832686  -18.735583  -120.53576  64.750347  -34.464654  -32.408913  12.875121  5.690477  23.627289  9.444553  4.776427  17.595287  
0.0  93.25843  0.0  -3.631777  -37.683112  -86.224063  19.999872  -16.884923  -4.92514  12.148597  -3.211483  16.243826  12.361291  1.218938  6.774891  -0.318635  -5.190374  -15.184845  -0.916794  8.971318  10.093141  4.055614  0.754533  1.497838  -0.782538  0.957019  -1.455145  -2.196709  2.567414  -4.009853  -2.196709  2.567414  -4.009854  -36.627356  20.21908  1.39978  177.265752  53.737537  -158.176963  -11.532904  -7.398331  4.916609  76.226033  8.165653  -2.489856  0.995056  -9.058084  32.797178  49.232595  22.523571  36.621885  19.867776  -19.489734  -119.48535  65.541262  -34.663381  -30.553045  12.826658  5.741249  23.102592  9.410263  4.801259  17.200912  
0.0  93.25843  0.0  -4.066169  -36.207697  -86.222896  19.230818  -17.542561  -4.864933  12.046426  -3.19097  16.042993  12.333137  1.254013  6.768031  -1.073908  -5.781554  -14.965011  -1.02642  9.318356  10.63958  3.817759  0.941631  1.414571  -1.063177  1.008454  -1.363584  -2.963417  2.694925  -3.772673  -2.963417  2.694925  -3.772673  -36.944976  20.01288  4.671194  -174.665501  53.706207  -150.393825  -14.307341  -10.667911  6.54614  76.65224  6.490893  -0.022855  -1.233082  -8.551037  33.818384  47.183054  19.722622  35.572811  19.655118  -21.047321  -118.528793  66.406919  -34.589416  -27.428326  13.011059  5.443298  22.880293  9.562582  4.579527  17.040609  
0.0  93.25843  0.0  -3.933172  -34.970922  -86.379987  18.300369  -17.618059  -4.835233  12.217816  -3.280505  15.904412  12.423984  1.262234  6.866405  -1.95806  -6.026835  -14.780261  -1.131964  9.73547  10.864092  3.664891  1.068432  1.289596  -1.464943  1.147376  -1.049978  -4.05594  3.070603  -2.940277  -4.05594  3.070603  -2.940277  -34.689756  18.40332  6.084751  -169.086209  53.544682  -144.501188  -15.361891  -8.921703  11.436969  78.453585  5.532836  -0.529416  -1.63507  -9.118778  33.368977  44.575575  17.022568  34.071114  19.531258  -22.976286  -117.394679  67.176278  -34.064997  -24.246235  13.556263  5.464661  21.515248  9.98135  4.584985  16.012303  
0.0  93.25843  0.0  -3.356962  -35.034  -86.283916  18.276375  -17.063035  -5.282864  12.817839  -3.514322  16.009124  12.54924  1.245444  7.038576  -1.980892  -5.736596  -15.04381  -1.043947  9.935403  10.884203  4.868871  1.562753  1.395623  -1.489455  1.039169  -0.98157  -4.114936  2.778216  -2.747361  -4.114937  2.778216  -2.747362  -32.627541  18.170372  4.845283  -173.579356  53.068187  -147.300077  -16.594989  -7.39664  17.461812  80.052443  6.187738  -2.208606  -1.776322  -7.96716  33.834914  41.517902  14.243941  32.096718  18.833286  -24.300784  -116.536173  67.390992  -32.94768  -21.228493  13.64261  6.238277  21.046576  10.020433  5.158475  15.639119  
0.0  93.25843  0.0  -2.939082  -35.329939  -86.238677  19.01914  -16.524225  -5.413838  13.044515  -3.774524  15.874247  12.450865  1.226949  7.102146  -1.874006  -5.317054  -15.172494  -1.04215  9.84867  10.833042  4.908447  1.618925  1.344243  -1.078641  0.952493  -1.053438  -2.990591  2.555383  -2.922646  -2.990591  2.555383  -2.922646  -32.078874  17.825379  4.487725  -179.070308  51.344279  -148.663693  -13.626647  -7.851369  18.457148  78.471994  6.625869  -3.720396  -3.755676  -7.600085  34.772212  38.304278  11.553528  31.158864  17.579531  -24.554803  -116.014475  68.010375  -31.776349  -19.294498  12.336811  6.359549  21.394107  9.032819  5.21126  15.908204  
0.0  93.25843  0.0  -2.39069  -34.154289  -86.101482  18.467157  -15.90013  -5.715181  13.08929  -4.01084  15.787127  12.271803  1.214336  7.111455  -2.989688  -4.753638  -15.496275  -1.298331  9.704544  10.733903  5.005625  1.587215  1.317142  -0.778397  0.990579  -1.117731  -2.174034  2.670672  -3.088288  -2.174034  2.670672  -3.088288  -33.285076  16.961309  4.901692  177.976862  51.350209  -148.895326  -11.58229  -7.479887  16.767456  75.16398  6.359244  -4.910375  -6.53441  -8.390837  35.449393  35.480294  9.684857  30.727185  16.624675  -24.199507  -115.867073  68.274001  -30.824935  -18.111701  10.477776  5.892772  21.823578  7.651859  4.802444  16.257791  
0.0  93.25843  0.0  -2.142412  -33.276536  -86.238675  18.237887  -15.628739  -5.698817  12.899005  -4.149937  15.777367  12.10509  1.205351  7.068371  -3.579382  -4.333153  -15.428773  -1.727397  9.591491  10.643141  5.139963  1.470289  1.313793  -0.703952  0.912412  -1.125954  -1.967029  2.460339  -3.105272  -1.967029  2.460339  -3.105272  -33.116132  17.322114  4.931327  -178.406627  51.713403  -145.094925  -9.268695  -6.799962  15.355064  73.77384  6.771616  -3.805429  -8.18239  -7.900282  36.194239  34.486298  8.829523  29.843624  16.762482  -23.966695  -115.701256  68.085425  -29.960667  -17.749693  9.539546  5.772198  22.455577  6.946941  4.688344  16.742103  
0.0  93.25843  0.0  -2.38057  -31.057445  -85.531302  16.812909  -15.728121  -6.514676  12.557837  -4.197425  15.881203  12.102167  1.165721  7.081634  -5.350675  -4.492391  -15.946281  -2.265092  9.463267  10.578972  5.330011  1.368686  1.299347  -1.048687  0.771668  -1.192144  -2.904587  2.056536  -3.29235  -2.904587  2.056536  -3.29235  -31.100124  17.237174  4.275309  -177.814336  51.651651  -143.84058  -9.458499  -5.929132  14.961168  74.412692  7.270334  -2.754159  -8.43628  -7.918016  36.036319  34.607724  9.075766  29.611306  17.057018  -23.324475  -115.086401  67.754037  -29.788108  -18.36519  10.038001  5.713836  23.233587  7.316887  4.676334  17.322401  
0.0  93.25843  0.0  -2.328761  -30.201648  -85.655986  16.427068  -15.662346  -6.627163  12.18461  -4.211569  16.077345  12.08923  1.198776  7.060746  -5.999407  -4.314848  -15.824307  -2.469455  9.43099  10.528301  5.423631  1.282735  1.266835  -1.168415  0.6813  -1.22221  -3.227979  1.802174  -3.373582  -3.227979  1.802174  -3.373583  -29.369322  17.410751  3.8197  178.829006  51.357424  -146.610122  -11.789647  -6.081754  15.450032  75.69155  7.121543  -1.21831  -8.359124  -8.04269  35.925551  35.439677  10.130953  29.893802  17.167357  -22.379171  -114.500777  68.470368  -30.114682  -19.624888  9.979979  5.800444  24.006365  7.263272  4.752392  17.900299  
0.0  93.25843  0.0  -2.33708  -29.443427  -85.67521  16.047601  -15.645505  -6.829417  11.947669  -4.195271  16.345795  12.377048  1.120875  7.257922  -6.751394  -4.262401  -15.767284  -2.566521  9.385046  10.498667  5.402682  0.96088  1.346465  -1.271074  0.561713  -1.30514  -3.504033  1.465805  -3.596403  -3.504033  1.465805  -3.596403  -28.912531  17.698168  4.285137  176.665706  50.880818  -147.725302  -12.906758  -6.026087  15.283993  76.323058  6.821871  -0.274817  -8.77696  -7.849049  35.492694  37.503401  11.599673  31.060412  17.159203  -21.554959  -114.03941  69.634575  -30.417105  -20.995327  10.02457  6.060444  24.863833  7.27823  4.964303  18.53694  
0.0  93.25843  0.0  -2.293997  -28.791847  -85.635678  15.702042  -15.576729  -7.022097  11.697686  -4.068522  16.489629  12.335234  1.205462  7.205515  -7.499404  -4.227378  -15.833336  -2.579252  9.407104  10.516928  5.444197  1.003298  1.289285  -1.431704  0.481443  -1.332115  -3.938997  1.236153  -3.668631  -3.938998  1.236153  -3.668631  -29.431311  17.852334  4.73775  177.937274  50.431  -146.847359  -11.237699  -5.292375  14.910547  76.383945  6.455717  0.35997  -7.331371  -8.052291  35.238398  38.55261  12.981711  31.386856  17.116762  -21.12206  -113.883765  69.878326  -30.575483  -21.702648  10.257591  6.303069  25.32295  7.438369  5.164322  18.873491  
